# xmcd
#
# Track frame offsets: 
#        150
#        18297
#        33402
#        48992
#
# Disc length: 866 seconds
#
# Revision: 0
# Processed by: cddbd v1.5.2PL0 Copyright (c) Steve Scherf et al.
# Submitted via: ExactAudioCopy v0.99pb5
#
DISCID=26036004
DTITLE=Big and Rich - That's Why I Pray [CD Single)
DYEAR=2012
DGENRE=Country
TTITLE0=That's Why I Pray
TTITLE1=Save A Horse (Ride A Cowboy)
TTITLE2=Comin' To Your City
TTITLE3=Lost In This Moment
EXTD=
EXTT0=
EXTT1=
EXTT2=
EXTT3=
PLAYORDER=
